<?xml version="1.0" standalone="no"?>
<!DOCTYPE svg PUBLIC "-//W3C//DTD SVG 20010904//EN"
 "http://www.w3.org/TR/2001/REC-SVG-20010904/DTD/svg10.dtd">
<svg version="1.0" xmlns="http://www.w3.org/2000/svg"
 width="205.000000pt" height="205.000000pt" viewBox="0 0 205.000000 205.000000"
 preserveAspectRatio="xMidYMid meet">
<metadata>
Created by potrace 1.14, written by Peter Selinger 2001-2017
</metadata>
<g transform="translate(0.000000,205.000000) scale(0.100000,-0.100000)"
fill="#000000" stroke="none">
<path d="M50 2000 c-8 -5 -10 -10 -5 -10 6 0 4 -4 -3 -9 -9 -5 -14 -39 -15
-109 -1 -56 0 -102 3 -102 3 0 6 -51 7 -113 2 -117 3 -134 16 -154 5 -7 5 -13
2 -13 -3 0 13 -27 35 -61 29 -42 39 -64 32 -72 -16 -19 -56 -136 -68 -197 -2
-8 -6 -31 -10 -50 -10 -54 -10 -90 1 -90 6 0 6 -3 -1 -8 -5 -4 -9 -20 -8 -37
5 -76 14 -143 23 -172 5 -18 7 -33 4 -33 -3 0 -1 -6 5 -12 6 -7 11 -17 12 -23
4 -19 12 -40 23 -65 6 -14 11 -27 12 -30 12 -36 70 -132 108 -177 53 -63 135
-143 146 -143 7 0 9 -4 6 -10 -3 -5 -1 -10 6 -10 7 0 20 -7 30 -16 21 -19 64
-44 139 -82 30 -15 57 -30 60 -33 3 -3 23 -12 45 -18 56 -17 59 -18 65 -19 3
0 19 -6 35 -12 17 -7 44 -14 60 -17 17 -2 48 -7 70 -10 63 -9 265 -13 265 -5
0 4 15 7 33 8 17 0 46 4 62 8 17 4 41 9 55 11 26 4 74 19 127 42 17 7 36 13
42 13 6 0 11 5 11 10 0 6 7 10 16 10 9 0 28 9 43 19 15 11 34 21 42 23 8 2 16
5 19 8 16 16 90 70 96 70 13 0 150 145 184 195 42 61 90 154 90 172 0 9 5 11
13 7 6 -4 9 -4 5 0 -3 4 2 37 13 73 10 36 18 68 17 72 0 3 1 8 2 11 9 22 18
230 10 230 -3 0 -6 15 -7 33 -1 17 -4 43 -8 57 -4 14 -7 33 -7 42 1 10 -3 20
-9 23 -5 4 -9 17 -9 31 0 13 -5 24 -12 24 -6 0 -9 3 -5 6 3 4 -1 20 -9 36 -19
37 -28 82 -15 74 5 -4 12 3 16 14 3 11 10 20 15 20 9 0 25 39 22 53 -1 4 2 7
8 7 5 0 10 9 10 19 0 11 3 22 8 24 4 3 7 60 7 126 0 67 4 121 8 121 5 0 5 6 0
13 -10 15 -10 35 -1 69 3 15 3 30 -1 32 -9 6 -8 37 3 54 4 6 2 12 -3 12 -6 0
-10 3 -10 8 4 21 -3 32 -19 32 -25 0 -42 -20 -42 -50 0 -104 -86 -188 -197
-193 -27 -1 -51 -6 -55 -12 -5 -6 -8 -6 -8 1 0 7 -21 9 -59 7 -48 -3 -68 0
-103 19 -24 12 -45 22 -48 23 -3 0 -20 9 -37 18 -18 10 -34 17 -35 16 -2 0
-16 5 -33 11 -16 7 -37 13 -45 15 -8 2 -15 4 -15 6 0 1 -9 3 -20 5 -11 1 -31
6 -45 9 -14 4 -36 8 -50 10 -14 2 -25 4 -25 5 0 10 -209 14 -283 6 -71 -8 -76
-9 -84 -21 -5 -6 -8 -5 -8 4 0 10 -3 11 -13 3 -7 -6 -24 -12 -37 -14 -14 -2
-30 -7 -36 -10 -6 -4 -21 -9 -35 -12 -13 -2 -41 -11 -61 -20 -21 -9 -39 -16
-40 -15 -2 1 -25 -11 -53 -27 -29 -16 -67 -28 -90 -29 -22 0 -46 -4 -53 -8 -6
-5 -12 -5 -12 0 0 4 -33 9 -74 10 -51 1 -82 6 -100 18 -14 10 -26 15 -26 12 0
-3 -13 7 -29 23 -35 36 -64 95 -66 138 -1 40 -24 65 -45 52z m650 -892 c0 -6
3 -8 6 -5 4 3 15 2 25 -4 26 -13 23 -75 -5 -95 -27 -19 -51 -18 -76 3 -20 17
-26 59 -12 78 8 11 43 34 55 34 4 1 7 -4 7 -11z m828 6 c12 -4 22 -13 22 -20
0 -8 4 -14 9 -14 11 0 5 -60 -7 -72 -15 -15 -67 -19 -85 -6 -9 7 -19 29 -22
48 -4 31 0 38 23 53 31 19 30 19 60 11z"/>
<path d="M680 1010 c-13 -9 -13 -10 0 -10 8 0 22 5 30 10 13 9 13 10 0 10 -8
0 -22 -5 -30 -10z"/>
</g>
</svg>
